<?xml version="1.0" standalone="no"?>
<!DOCTYPE svg PUBLIC "-//W3C//DTD SVG 20010904//EN"
 "http://www.w3.org/TR/2001/REC-SVG-20010904/DTD/svg10.dtd">
<svg version="1.0" xmlns="http://www.w3.org/2000/svg"
 width="511.000000pt" height="511.000000pt" viewBox="0 0 511.000000 511.000000"
 preserveAspectRatio="xMidYMid meet">
<metadata>
Created by potrace 1.11, written by Peter Selinger 2001-2013
</metadata>
<g transform="translate(0.000000,511.000000) scale(0.100000,-0.100000)"
fill="#000000" stroke="none">
<path d="M2286 5008 c-15 -51 -34 -115 -41 -142 -8 -26 -16 -50 -19 -53 -3 -3
-22 11 -43 31 -21 20 -41 36 -45 36 -4 0 -43 -19 -85 -42 -82 -46 -198 -153
-225 -207 l-15 -32 -147 148 c-126 126 -147 144 -142 118 3 -16 7 -46 10 -65
10 -76 19 -136 22 -155 3 -11 9 -49 14 -85 11 -78 2 -101 -75 -182 -147 -155
-274 -360 -345 -559 -31 -85 -68 -218 -77 -274 -2 -16 -6 -41 -9 -55 -6 -37
-16 -174 -18 -249 l-1 -66 -95 -57 c-101 -60 -141 -98 -156 -151 -6 -20 -10
-390 -10 -972 l1 -940 25 -45 c30 -54 59 -74 370 -252 129 -74 334 -193 455
-263 121 -70 234 -135 250 -145 17 -9 158 -90 314 -180 257 -148 289 -164 335
-166 66 -2 81 4 325 146 114 65 218 125 232 132 13 7 56 32 94 55 39 23 216
126 395 229 179 103 339 195 355 205 17 11 36 22 44 26 28 13 233 134 257 151
13 9 35 39 49 67 l25 49 0 944 c0 903 -1 945 -19 980 -29 57 -59 81 -190 156
-67 37 -123 71 -126 75 -2 4 -5 40 -6 80 -1 40 -5 92 -10 115 -4 25 -3 43 3
47 6 4 41 6 79 5 68 -1 68 -1 62 24 -3 14 -9 30 -13 35 -3 6 -22 46 -40 90
-35 83 -109 214 -154 275 -23 29 -24 36 -12 48 12 13 9 24 -22 86 -66 129
-203 243 -349 291 -29 9 -53 19 -53 22 0 3 43 63 95 133 52 70 95 132 95 139
0 6 -8 11 -17 11 -10 0 -84 14 -165 32 l-148 32 81 52 c69 43 78 52 58 55 -41
8 -582 4 -624 -4 -133 -25 -292 -77 -331 -108 -16 -13 -27 4 -59 91 -15 41
-38 102 -50 135 -13 33 -33 87 -45 120 -13 33 -26 63 -29 68 -4 4 -20 -35 -35
-85z"/>
</g>
</svg>
